<?xml version="1.0" encoding="UTF-8"?>
<svg id="Layer_2" data-name="Layer 2" xmlns="http://www.w3.org/2000/svg" viewBox="0 0 78.89 61.15">
  <defs>
    <style>
      .cls-1 {
        fill: #fff;
        stroke-width: 0px;
      }
    </style>
  </defs>
  <g id="Layer_1-2" data-name="Layer 1">
    <path class="cls-1" d="M40.59,61.15c-11.71.04-22.47-.9-33.17-2.76C3.16,57.65.37,54.35.01,49.73c-.12-1.51.59-2.37,1.99-2.4.71-.02,1.42-.03,2.13,0,.6.03.8-.21.8-.87,0-2.29,0-4.57.12-6.86.45-9.31,3.68-17.36,9.62-24.04,4.66-5.24,10.33-8.71,16.89-10.33.68-.17.98-.45,1.06-1.26.21-2.22,1.75-3.82,3.82-3.92,2.02-.1,4.04-.09,6.06.02,2.09.11,3.57,1.69,3.77,3.95.07.78.36,1.04,1.01,1.2,5.51,1.36,10.42,4.06,14.7,8.06,3.92,3.67,6.95,8.08,9.05,13.26,2.2,5.44,2.99,11.14,2.94,17.02,0,.98.03,1.96,0,2.94-.02.6.16.86.74.83.76-.04,1.53-.02,2.29.01,1.29.06,1.93.84,1.89,2.25-.13,4.49-3.21,8.1-7.61,8.84-10.46,1.76-20.98,2.74-30.69,2.71ZM19.54,15.91c-.31.25-.49.37-.64.53-4.97,4.89-8.24,10.86-9.7,17.99-.8,3.89-.72,7.84-.75,11.79,0,.92.25,1.13,1.06,1.13,18.76-.02,37.52-.01,56.29,0,1.31,0,2.62,0,3.93,0,.38,0,.73-.02.71-.59-.16-3.64-.06-7.33-.52-10.92-.79-6.11-3.3-11.47-6.99-16.15-1.03-1.31-2.22-2.47-3.46-3.84-.14.49-.22.7-.26.93-.86,4.66-1.72,9.32-2.58,13.98-.35,1.89-.7,3.79-1.08,5.67-.15.77-.57,1.33-1.32,1.54-.69.19-1.24-.1-1.69-.62-.52-.61-.45-1.36-.31-2.11,1.29-6.99,2.56-13.98,3.87-20.96.13-.68,0-1.05-.56-1.35-1.25-.66-2.44-1.47-3.73-2.04-1.73-.76-3.52-1.35-5.45-2.07,0,.58,0,.9,0,1.22,0,7.72,0,15.45-.02,23.17-.01,3.05-1.67,4.79-4.47,4.83-1.61.02-3.22.01-4.83.01-2.75,0-4.49-1.92-4.48-4.93,0-7.6,0-15.21.01-22.81,0-.4,0-.81,0-1.25-.24,0-.35-.02-.44,0-3.18.85-6.17,2.2-8.99,4.01-.42.27-.42.59-.34,1.05.56,2.97,1.09,5.94,1.64,8.91.76,4.14,1.53,8.27,2.29,12.4.13.72.14,1.43-.41,1.99-.48.5-1.04.79-1.71.55-.79-.28-1.16-.94-1.31-1.78-.72-3.93-1.44-7.86-2.17-11.8-.51-2.76-1.03-5.52-1.57-8.46ZM3.92,51.21c.59,1.83,2.02,3.05,3.93,3.38,1.7.29,3.4.56,5.1.81,9.13,1.36,18.31,1.95,27.52,1.92,8.89-.03,17.73-.74,26.53-2.06,1.65-.25,3.31-.49,4.92-.94,1.45-.4,2.53-1.41,3.08-3.12H3.92ZM36.08,19.03c0,4.66,0,9.33,0,13.99,0,.83.3,1.19,1.07,1.18,1.56-.02,3.11-.02,4.67,0,.73.01,1.02-.34,1.02-1.13,0-9.36-.01-18.71,0-28.07,0-.81-.26-1.21-1.05-1.19-1.5.03-3,0-4.51.02-1.04.01-1.19.16-1.19,1.3,0,4.63,0,9.27,0,13.9Z"/>
  </g>
</svg>