<?xml version="1.0" encoding="UTF-8"?>
<svg id="Layer_2" data-name="Layer 2" xmlns="http://www.w3.org/2000/svg" viewBox="0 0 9.21 9.21">
  <defs>
    <style>
      .cls-1 {
        fill: #1d1d1b;
        stroke-width: 0px;
      }
    </style>
  </defs>
  <g id="Layer_1-2" data-name="Layer 1">
    <path class="cls-1" d="M4.61,0c.86,0,1.72,0,2.59,0,1.22,0,2.02.8,2.02,2.01,0,1.71,0,3.42,0,5.13,0,1.28-.78,2.06-2.07,2.06-1.7,0-3.4,0-5.11,0C.8,9.21,0,8.41,0,7.17,0,5.44,0,3.72,0,1.99,0,.83.78.02,1.95,0c.89-.01,1.77,0,2.66,0ZM7.67,7.27c0-.57,0-1.11,0-1.66,0-.43,0-.86-.04-1.28-.07-.57-.36-1.02-.94-1.19-.59-.17-1.12-.04-1.56.41-.04.04-.05.09-.08.14-.02-.01-.05-.03-.07-.04v-.57h-1.12v4.17h1.12c0-.69,0-1.35,0-2.02,0-.18.03-.36.08-.52.12-.34.42-.53.75-.51.32.02.56.22.65.57.03.13.04.26.05.39,0,.61,0,1.23,0,1.84,0,.08,0,.16,0,.26h1.15ZM3.06,7.28V3.09h-1.14c0,.16,0,.3,0,.45,0,1.17,0,2.34,0,3.52,0,.09-.04.22.12.22.33,0,.66,0,1.02,0ZM2.49,2.57c.38,0,.65-.26.66-.64,0-.39-.3-.74-.66-.73-.37,0-.68.32-.68.69,0,.38.3.68.68.68Z"/>
  </g>
</svg>