<?xml version="1.0" encoding="UTF-8"?>
<svg id="Layer_2" data-name="Layer 2" xmlns="http://www.w3.org/2000/svg" viewBox="0 0 92.2 62.22">
  <defs>
    <style>
      .cls-1 {
        fill: #fff;
        stroke-width: 0px;
      }
    </style>
  </defs>
  <g id="Layer_1-2" data-name="Layer 1">
    <g>
      <path class="cls-1" d="M1.73,43.06c-.06-3.51.42-7.3,1.33-11.03.23-.93.22-.93,1.11-1.07,5.51-.91,11.02-1.87,16.54-2.72,3.52-.54,6.5-3.32,7.03-7.59.23-1.84.56-3.67.84-5.5.04-.27.14-.44.38-.57,1.05-.57,2.09-1.16,3.14-1.74,1.24-.69,2.36-.19,2.76,1.24,1.18,4.19,2.35,8.39,3.55,12.57.82,2.86,2.33,5.29,4.36,7.35.3.3.42.59.41,1.02-.02,1.01.03,2.03-.28,3.02-.82,2.58-2.52,4.09-5.04,4.51-3.47.58-6.95,1.13-10.43,1.68-1.81.29-3.61.6-5.33,1.3-3.17,1.29-5.77,3.38-7.83,6.24-.18.25-.33.33-.61.21-2.82-1.18-5.64-2.34-8.47-3.52-1.09-.45-2.17-.92-3.26-1.36-.23-.09-.22-.25-.22-.43,0-1.08,0-2.16,0-3.6ZM36.33,29.37c-.61,0-1.13.58-1.13,1.23,0,.65.53,1.21,1.14,1.21.63,0,1.17-.58,1.15-1.25-.02-.64-.56-1.2-1.17-1.19ZM34.41,26.64c.61.01,1.15-.54,1.17-1.19.02-.65-.5-1.22-1.11-1.24-.63-.02-1.18.54-1.18,1.2,0,.65.52,1.22,1.13,1.23ZM33.97,20.26c0-.66-.5-1.2-1.13-1.21-.63,0-1.14.52-1.15,1.18-.01.67.52,1.24,1.15,1.24.62,0,1.13-.55,1.14-1.21ZM39.53,36.61c.61,0,1.13-.57,1.13-1.22,0-.68-.54-1.22-1.17-1.21-.62.02-1.12.58-1.11,1.24.01.65.55,1.2,1.16,1.19Z"/>
      <path class="cls-1" d="M11.29,62.21c-2.74,0-5.47,0-8.21,0-.64,0-1.23-.13-1.78-.48C.45,61.18,0,60.38,0,59.31c0-3.06,0-6.12,0-9.18,0-.91.62-1.37,1.43-1.03,1.01.42,2.01.85,3.01,1.28,2.49,1.06,4.97,2.16,7.48,3.16,3.25,1.28,6.64,1.9,10.11,1.91,8.3.01,16.61-.01,24.91,0,5.77.02,11.09-1.55,15.96-4.86,1.99-1.35,4.01-2.64,6.03-3.94.27-.17.59-.3.9-.33.65-.05,1.19.43,1.2,1.08.02,2.28.07,4.57-.03,6.84-.1,2.19-1.56,3.93-3.65,4.59-4.51,1.43-9.09,2.54-13.78,3-2.08.2-4.17.32-6.25.35-3.27.06-6.54,0-9.81.02-1.33,0-2.3-.55-2.84-1.87-.19-.47-.41-.93-.64-1.38-.07-.13-.25-.26-.39-.26-3.41-.01-6.81-.01-10.22,0-.14,0-.34.14-.42.28-.31.54-.59,1.1-.87,1.66-.53,1.06-1.38,1.55-2.49,1.57-.93.01-1.86,0-2.8,0-1.85,0-3.7,0-5.56,0Z"/>
      <path class="cls-1" d="M16.15,52.63c.98-1.28,2.06-2.35,3.28-3.25,2.2-1.63,4.64-2.52,7.28-2.92,3.86-.59,7.72-1.2,11.57-1.87,3.96-.69,6.63-3.89,6.87-8.14,0-.12.02-.23.03-.4.12.06.22.11.31.16,3.57,2.31,7.45,3.09,11.59,2.63,1.49-.16,2.99-.38,4.49-.37,3.17.02,6.28,2.51,7.3,5.7.01.04.01.08.01.07-1.44.94-2.86,1.88-4.3,2.79-1.84,1.17-3.66,2.41-5.56,3.46-2.93,1.62-6.09,2.47-9.39,2.74-.93.08-1.86.1-2.79.1-8.27,0-16.53,0-24.8,0-1.86,0-3.69-.23-5.51-.6-.11-.02-.21-.06-.38-.11Z"/>
      <path class="cls-1" d="M66.17,26.41c-.31.86-.54,1.73-.92,2.52-1.43,2.96-3.75,4.69-6.83,5.23-2.88.5-5.77.93-8.66,1.39-.16.03-.36.02-.5-.05-.82-.4-1.64-.83-2.45-1.25-.26-.14-.51-.31-.8-.49,1.56-.25,3.08-.49,4.6-.74,2.58-.42,5.16-.8,7.74-1.27,2.77-.5,4.94-2.79,5.53-5.68.05-.26.01-.43-.19-.61-2.65-2.39-4.65-5.31-5.96-8.72-.58-1.51-.94-3.11-1.38-4.67-.85-2.98-1.69-5.96-2.53-8.94-.22-.78-.54-.92-1.21-.54-1.53.86-3.05,1.72-4.58,2.57-.27.15-.39.34-.44.66-.21,1.41-.39,2.82-.68,4.21-.64,3.09-3.02,5.36-5.97,5.8-.9.13-1.79.29-2.69.44-.11.02-.22.03-.36.05-.21-.74-.41-1.47-.63-2.26.51-.09.98-.17,1.45-.25.67-.11,1.35-.21,2.03-.34,2.11-.38,3.68-2.03,4.06-4.28.19-1.13.36-2.26.54-3.39,0-.06,0-.12.01-.24-.53.09-1.03.17-1.52.25-6.66,1.16-13.31,2.32-19.97,3.48-.75.13-.81.21-.81,1.02,0,1.03,0,2.06,0,3.09,0,.28-.07.4-.34.44-.61.09-1.22.2-1.83.3,0-1.7-.09-3.38.03-5.04.08-1.11,1-1.88,2.09-2.07,5.39-.94,10.79-1.87,16.19-2.81,2.34-.41,4.68-.82,7.02-1.22.25-.04.52,0,.78-.03.17-.02.34-.06.49-.14,1.39-.78,2.78-1.58,4.18-2.37,1.8-1.02,3.72-.18,4.3,1.89,1.16,4.1,2.32,8.21,3.48,12.31.83,2.93,2.34,5.42,4.29,7.64.16.18.34.35.5.53.28.32.55.6,1.05.44.17-.06.44.07.62.2,2.71,1.82,5.68,2.73,8.87,2.7,1.72-.02,3.45-.24,5.16-.46,4.35-.54,8.46,2.03,9.98,6.37.26.74.44,1.34,1.26,1.64.71.27,1.04,1.04,1.05,1.87.01,2.43.07,4.86-.02,7.28-.1,2.67-1.48,4.53-3.76,5.49-1.6.67-3.29,1.09-4.96,1.55-3.12.86-6.29,1.41-9.5,1.76-.18.02-.37.03-.6.04,0-.75,0-1.48.01-2.2,0-.07.16-.17.26-.18,2.61-.3,5.2-.7,7.76-1.34,1.91-.48,3.81-1.01,5.69-1.61,1.55-.49,2.6-1.56,2.87-3.34.02-.14.02-.29.02-.43,0-2.18,0-4.35,0-6.53,0-.13,0-.26,0-.47-.2.1-.34.17-.47.25-2.65,1.71-5.27,3.49-7.97,5.13-2.96,1.8-6.18,2.87-9.56,3.42-.51.08-.71-.11-.85-.65-.13-.52-.34-1.01-.52-1.53.82-.15,1.63-.28,2.45-.46,3.09-.67,5.98-1.86,8.66-3.61,2.02-1.32,4.04-2.65,6.07-3.96.24-.16.32-.32.24-.61-.64-2.39-2.06-4.05-4.2-5.02-1.35-.61-2.74-.62-4.17-.45-1.58.19-3.16.39-4.75.42-2.91.04-5.7-.62-8.33-1.97-.1-.05-.2-.1-.31-.15-.02,0-.05,0-.06,0Z"/>
      <path class="cls-1" d="M26.51,15.61c-.15.98-.29,1.91-.44,2.85-.14.87-.26,1.74-.42,2.61-.51,2.66-2.47,4.63-4.99,5.04-5.67.94-11.34,1.88-17.01,2.81-1.23.2-1.92-.41-1.92-1.72,0-1.93,0-3.85,0-5.78,0-1.05.42-1.59,1.4-1.76,7.72-1.35,15.45-2.69,23.17-4.04.05,0,.1,0,.22-.01Z"/>
      <path class="cls-1" d="M51.74,7.15c.63,0,1.12.54,1.12,1.21,0,.65-.51,1.16-1.13,1.16-.61,0-1.11-.53-1.12-1.18-.01-.65.5-1.2,1.14-1.2Z"/>
      <path class="cls-1" d="M53.03,12.41c.64,0,1.14.51,1.14,1.18,0,.65-.49,1.17-1.1,1.19-.61.02-1.14-.54-1.14-1.19,0-.65.49-1.17,1.11-1.18Z"/>
      <path class="cls-1" d="M54.7,17.68c.61,0,1.11.54,1.12,1.19,0,.65-.52,1.19-1.16,1.18-.62-.01-1.1-.55-1.1-1.2,0-.64.52-1.17,1.13-1.17Z"/>
      <path class="cls-1" d="M58.71,23.86c0,.67-.49,1.17-1.12,1.17-.63,0-1.13-.55-1.12-1.22.01-.64.54-1.17,1.15-1.16.61.01,1.09.55,1.09,1.21Z"/>
    </g>
  </g>
</svg>