<?xml version="1.0" encoding="UTF-8"?>
<svg xmlns="http://www.w3.org/2000/svg" viewBox="0 0 19.11 28.53">
  <defs>
    <style>
      .cls-1 {
        fill: #e4e3e5;
        mix-blend-mode: multiply;
      }

      .cls-1, .cls-2 {
        stroke-width: 0px;
      }

      .cls-3 {
        isolation: isolate;
      }

      .cls-2 {
        fill: #e74d0f;
      }
    </style>
  </defs>
  <g class="cls-3">
    <g id="Layer_2" data-name="Layer 2">
      <g id="Layer_1-2" data-name="Layer 1">
        <g>
          <path class="cls-1" d="M15.51,26.86c0,.93-2.75,1.68-6.14,1.68s-6.14-.75-6.14-1.68,2.75-1.68,6.14-1.68,6.14.75,6.14,1.68Z"/>
          <path class="cls-2" d="M9.55,0C4.28,0,0,4.45,0,9.93c0,5.86,9.55,17.19,9.55,17.19,0,0,9.55-10.89,9.55-17.19C19.11,4.45,14.83,0,9.55,0ZM9.55,13.82c-2.28,0-4.13-1.92-4.13-4.3s1.85-4.3,4.13-4.3,4.13,1.92,4.13,4.3-1.85,4.3-4.13,4.3Z"/>
        </g>
      </g>
    </g>
  </g>
</svg>