<?xml version="1.0" encoding="UTF-8"?>
<svg id="Layer_2" data-name="Layer 2" xmlns="http://www.w3.org/2000/svg" viewBox="0 0 10.75 8.73">
  <defs>
    <style>
      .cls-1 {
        fill: #1d1d1b;
        stroke-width: 0px;
      }
    </style>
  </defs>
  <g id="Layer_1-2" data-name="Layer 1">
    <path class="cls-1" d="M10.75,1.04c-.3.43-.67.82-1.11,1.14,0,.09,0,.19,0,.28,0,2.91-2.21,6.27-6.27,6.27-1.25,0-2.41-.36-3.38-.99.18.02.35.03.53.03,1.03,0,1.98-.35,2.74-.94-.97-.02-1.78-.65-2.06-1.53.14.02.27.03.42.03.2,0,.4-.03.58-.08-1.01-.2-1.76-1.09-1.76-2.16v-.03c.29.16.63.27.99.28-.59-.4-.98-1.07-.98-1.84,0-.41.11-.78.3-1.11,1.08,1.34,2.71,2.21,4.54,2.31-.03-.16-.05-.33-.05-.51,0-1.21.98-2.2,2.2-2.2.63,0,1.21.27,1.61.7.5-.1.97-.28,1.4-.53-.16.51-.51.94-.97,1.21.44-.05.87-.17,1.27-.34"/>
  </g>
</svg>