<?xml version="1.0" encoding="UTF-8"?>
<svg id="Layer_2" data-name="Layer 2" xmlns="http://www.w3.org/2000/svg" viewBox="0 0 70.97 68.48">
  <defs>
    <style>
      .cls-1 {
        fill: #fff;
        stroke-width: 0px;
      }
    </style>
  </defs>
  <g id="Layer_1-2" data-name="Layer 1">
    <path class="cls-1" d="M48.93,0c3.69,1.5,7.36,3.03,11.07,4.48,4.34,1.69,4.37,1.69,4.38,6.13,0,3.73-.02,7.47.01,11.2.03,3.87.97,4.9,4.88,6.2.72.24,1.6,1.36,1.61,2.08.1,11.38.11,22.76.04,34.14-.02,2.72-1.63,4.07-4.54,4.08-8.3.03-16.63.43-24.89-.12-6.04-.41-11.98.43-17.98.19-6.03-.24-12.07-.05-18.11-.05-4.25,0-5.39-1.05-5.4-5.15C0,52.53.03,41.87,0,31.22c0-1.9.17-3.14,2.71-3.53,2.56-.39,3.77-2.51,3.76-5.09-.01-4.28.11-8.56-.05-12.84-.1-2.58.89-4.01,3.41-4.9,4.22-1.48,8.33-3.23,12.49-4.87.57,0,1.13,0,1.7,0,1.4,1,2.69,2.19,4.2,2.98C34.2,6.06,43.16,4.49,46.66,0,47.42,0,48.17,0,48.93,0ZM3.01,51c7.75,0,15.19-.04,22.62.05.87,0,1.73.67,2.59,1.03-.89.43-1.77,1.22-2.67,1.23-6.79.11-13.58.02-20.36.12-.78.01-1.55.76-2.32,1.17.74.44,1.47,1.24,2.22,1.26,4.81.12,9.62.06,14.42.06,2.36,0,4.72-.07,7.07.06.58.03,1.12.74,1.68,1.13-.56.39-1.09,1.05-1.68,1.11-1.68.16-3.39.08-5.09.08-6.1,0-12.2,0-18.64,0,0,1.74.11,3.17-.02,4.59-.2,2.17.71,2.78,2.92,2.75,8.39-.12,16.78-.04,25.17-.06.69,0,1.38-.12,1.64-.15-.27-2.84-.67-5.42-.72-8-.11-6.1-.06-12.2-.05-18.29,0-1.36-.38-3.04.29-4.03,2.63-3.89.77-7.27-.77-10.77-.77-1.75-1.49-3.53-2.25-5.29-2.24-5.26-4.49-10.52-6.78-15.89-3.87,1.46-7.41,2.9-11.03,4.12-1.66.56-2.06,1.46-2.02,3.03.1,4.09.04,8.19.04,12.29,0,3.39-1.48,5.9-4.67,7.49-.71.35-1.54,1.11-1.65,1.79-.25,1.48-.08,3.03-.08,4.87,1.31,0,2.32,0,3.33,0,6.41,0,12.82-.04,19.23.06.95.02,1.89.73,2.83,1.12-.92.41-1.84,1.15-2.77,1.16-6.69.1-13.39,0-20.08.1-.85.01-1.68.8-2.52,1.22.85.42,1.7,1.19,2.56,1.2,6.69.11,13.39.04,20.08.11.96,0,1.92.43,2.89.66,0,.34-.02.68-.03,1.03-1,.22-2.01.6-3.01.62-4.71.07-9.43.03-14.14.03-2.7,0-5.39,0-8.24,0v6.96ZM68.01,30.73c-5.47-1.51-6.74-5.55-6.51-10.56.16-3.45.09-6.92-.02-10.38-.02-.74-.52-1.86-1.11-2.11-3.85-1.6-7.79-3-11.85-4.52-4.72,11.22-9.34,22.19-14.05,33.38h33.54v-5.82ZM67.8,58.48h-32.85c-.67,4.85,1.27,7.1,6,7.11,6.96.02,13.92,0,20.88,0q6.71,0,6.23-6.55c0-.08-.07-.16-.25-.56ZM67.95,44.24h-33.07v6.5h33.07v-6.5ZM35.44,26.89c3.16-7.51,6.03-14.32,9.14-21.71-6.31,2.85-12.03,2.68-18.23.16,3.09,7.33,5.94,14.08,9.09,21.55ZM51.48,53.38c-4.8,0-9.6-.02-14.4.02-1,0-2.62-.46-2.29,1.35.09.5,1.46,1.12,2.24,1.13,9.6.08,19.2.08,28.8,0,.76,0,1.51-.78,2.26-1.19-.74-.43-1.46-1.22-2.21-1.24-4.8-.11-9.6-.06-14.4-.06ZM51.48,39.13c-4.89,0-9.79-.06-14.67.06-.72.02-1.41.86-2.12,1.32.69.38,1.37,1.1,2.06,1.1,9.69.07,19.38.08,29.07,0,.76,0,1.52-.78,2.28-1.19-.74-.43-1.47-1.22-2.23-1.23-4.8-.11-9.6-.06-14.39-.06Z"/>
  </g>
</svg>