<?xml version="1.0" encoding="UTF-8"?>
<svg id="Layer_2" data-name="Layer 2" xmlns="http://www.w3.org/2000/svg" viewBox="0 0 9.53 9.54">
  <defs>
    <style>
      .cls-1 {
        fill: #1d1d1b;
        stroke-width: 0px;
      }
    </style>
  </defs>
  <g id="Layer_1-2" data-name="Layer 1">
    <path class="cls-1" d="M7.75,0c.49,0,.92.18,1.27.53.35.35.52.77.52,1.26v5.96c0,.49-.18.91-.52,1.26-.35.35-.77.53-1.27.53h-1.16v-3.7h1.23l.19-1.44h-1.42v-.92c0-.23.05-.4.14-.52.1-.12.29-.17.57-.17h.76v-1.29c-.26-.04-.63-.06-1.1-.06-.56,0-1.01.17-1.35.5-.34.33-.5.8-.5,1.4v1.06h-1.24v1.44h1.24v3.7H1.79c-.49,0-.91-.18-1.26-.53-.35-.35-.53-.77-.53-1.26V1.79c0-.5.18-.91.53-1.26.35-.35.77-.53,1.26-.53h5.96Z"/>
  </g>
</svg>