<?xml version="1.0" encoding="UTF-8"?>
<svg id="Layer_2" data-name="Layer 2" xmlns="http://www.w3.org/2000/svg" viewBox="0 0 71.52 46.88">
  <defs>
    <style>
      .cls-1 {
        fill: #fff;
        stroke-width: 0px;
      }
    </style>
  </defs>
  <g id="Layer_1-2" data-name="Layer 1">
    <path class="cls-1" d="M71.52,36.37c-.65,1.32-1.17,2.68-1.96,3.94-2.53,4.04-6.56,6.18-12.07,6.32-.1,0-.21,0-.31,0-7.97,1.04-13.76-1.16-17.7-7.29-2.37-3.69-4.51-3.48-7.54-.12-.06.07-.15.12-.19.2-3.82,7.2-11.07,7.96-19.24,7.18-6.49-.62-12.04-5.5-12.36-11.33-.22-4-.16-8.01-.05-12.02.02-.83.58-1.81,1.28-2.43C8.49,14.45,15.66,8.12,22.87,1.82c2.59-2.26,5.34-2.4,7.43-.5,2.22,2.01,1.68,5.02-1.42,5.85-3,.8-4.78,2.5-6.47,4.43-2.65,3.03-5.26,6.07-8.2,9.46h43.27c-4.12-4.45-7.9-8.62-11.84-12.68-.62-.64-2.02-.73-3.03-1.12-2.53-.98-3.47-3.13-2.23-5.07,1.25-1.96,3.97-2.73,6.28-1.65.96.45,1.82,1.11,2.58,1.78,6.88,6.08,13.73,12.19,20.61,18.27.45.4,1.11.64,1.67.95v14.84ZM3.16,28.95c0,2.02-.07,3.88.01,5.73.27,5.57,4.95,9.33,11.63,9.39,1.85.02,3.76.26,5.52-.07,1.85-.35,3.91-.97,5.23-2.03,1.96-1.57,3.23-3.72,4.99-5.48,3.14-3.15,6.86-3.16,10.17-.15.48.44.94.91,1.34,1.4,6.54,7.87,4.83,6.17,15.53,6.31,3.53.05,6.3-1.34,8.32-3.7,3-3.51,2.8-7.43,2.3-11.39H3.16ZM68.33,24.04H3.27v2.51h65.06v-2.51ZM5.4,20.96c3.03.65,4.91.42,6.53-1.59,3.13-3.87,6.49-7.63,9.98-11.28,1.14-1.2,2.99-1.93,4.51-2.88.67-.42,1.4-.8,1.94-1.32.09-.09-.67-1.12-.92-1.09-.82.1-1.79.33-2.33.8-6.48,5.65-12.9,11.34-19.7,17.35ZM66.09,21.01c-6.82-6.05-13.38-11.89-20.01-17.67-.45-.4-1.4-.51-2.12-.53-.27,0-.89.76-.79.93.33.53.87,1,1.45,1.38,1.87,1.24,4.14,2.19,5.63,3.68,3.13,3.14,6.04,6.46,8.71,9.89,1.66,2.14,3.55,3.11,7.13,2.32Z"/>
  </g>
</svg>