<?xml version="1.0" encoding="UTF-8"?>
<svg id="Layer_2" data-name="Layer 2" xmlns="http://www.w3.org/2000/svg" viewBox="0 0 84.74 80.25">
  <defs>
    <style>
      .cls-1 {
        fill: #fff;
        stroke-width: 0px;
      }
    </style>
  </defs>
  <g id="Layer_1-2" data-name="Layer 1">
    <g>
      <path class="cls-1" d="M39.03,13.51c1.16-1.14,2.27-2.23,3.37-3.31,2.93-2.88,5.86-5.76,8.8-8.63,1.84-1.78,4.65-2.08,6.83-.76,1.09.66,1.78,1.62,2.18,2.8,2.47-1.58,4.92-1.75,7.23.22,1.72,1.47,2.13,3.71,1.25,5.93.35.13.7.24,1.04.39,3.33,1.51,4.16,5.82,1.62,8.42-.54.55-1.11,1.06-1.71,1.64.24.1.41.17.58.24,2.03.84,3.29,2.78,3.21,4.93-.05,1.48-.66,2.71-1.73,3.75-5.07,4.96-10.13,9.93-15.19,14.9-3.66,3.59-7.32,7.19-11,10.77-1.13,1.1-2.47,1.88-3.98,2.38-1.02.34-1.98.79-2.75,1.52-.48.45-.85,1.01-1.22,1.56-2.24,3.29-4.47,6.59-6.7,9.89-.66.98-1.34,1.96-1.99,2.94-.77,1.16-1.89,1.71-3.25,1.82-1.3.11-2.53-.21-3.72-.66-2.34-.88-4.42-2.2-6.42-3.66-2.46-1.79-4.72-3.8-6.81-5.98-2.51-2.62-4.84-5.38-6.64-8.53-.96-1.67-1.76-3.4-1.99-5.33-.16-1.38.03-2.69,1-3.77.32-.35.76-.61,1.17-.88,1.78-1.17,3.57-2.33,5.35-3.49,1.21-.78,2.42-1.54,3.62-2.33,1.59-1.03,3.19-2.05,4.74-3.13.72-.5,1.16-1.27,1.53-2.05.39-.82.73-1.68,1.1-2.51.1-.23.23-.46.39-.66.34-.41.46-.87.48-1.4.12-2.95,1.04-5.65,2.63-8.16,1.56-2.46,3.01-4.99,4.51-7.48,1.11-1.85,2.17-3.73,3.37-5.53,1.67-2.5,5.53-2.8,7.67-.67,1.24,1.23,1.71,2.7,1.46,4.4-.01.1-.03.21-.05.4ZM19.95,36.71c-.16.27-.32.58-.53.85-.51.63-.95,1.37-1.6,1.83-1.91,1.35-3.9,2.58-5.86,3.86-2.83,1.85-5.67,3.69-8.5,5.54-.19.13-.36.37-.43.59-.09.3-.1.64-.07.96.11,1.34.66,2.54,1.29,3.71,1.51,2.83,3.53,5.29,5.7,7.64,1.65,1.79,3.43,3.47,5.32,5.02,2.09,1.72,4.26,3.31,6.74,4.46.94.44,1.91.79,2.96.85.55.03,1.1,0,1.45-.52,1.76-2.57,3.51-5.14,5.26-7.72.81-1.2,1.61-2.41,2.41-3.61.63-.94,1.27-1.88,1.92-2.84-.1-.04-.17-.07-.24-.1-.86-.35-1.72-.69-2.57-1.06-.23-.1-.34-.12-.52.09-2.41,2.77-4.82,5.53-7.24,8.29-.35.4-.7.81-1.06,1.21-.62.7-1.5.8-2.15.26-.65-.54-.7-1.43-.09-2.13,2.27-2.6,4.54-5.19,6.81-7.79.46-.52.91-1.05,1.38-1.58-.1-.07-.16-.12-.23-.17-3.49-2.4-6.55-5.23-9.08-8.61-.83-1.11-1.55-2.29-2.11-3.56-.34-.78-.02-1.62.71-1.94.77-.34,1.63-.03,1.97.75.74,1.68,1.8,3.16,2.99,4.56,2.12,2.5,4.56,4.66,7.3,6.5,1.55,1.04,3.17,1.95,4.99,2.47.78.23,1.58.44,2.4.28,1.61-.32,3.07-.98,4.25-2.13,4.06-3.96,8.1-7.94,12.14-11.91,2.89-2.84,5.79-5.67,8.68-8.51,1.82-1.78,3.64-3.56,5.45-5.35.76-.75.93-1.85.47-2.75-.8-1.54-2.78-1.79-4.08-.51-2.87,2.82-5.74,5.64-8.62,8.45-.17.17-.22.31-.17.54.22.87-.24,1.64-1.06,1.82-.85.19-1.57-.32-1.81-1.19-.27-.93-.54-1.87-.93-2.75-1.21-2.78-2.95-5.21-5.24-7.26-1.59-1.42-3.39-2.53-5.4-3.28-.81-.3-1.19-1.09-.9-1.88.27-.72,1.12-1.11,1.89-.83.46.17.92.35,1.37.56.21.1.33.09.51-.08,1.44-1.43,2.89-2.85,4.34-4.27,2.24-2.2,4.49-4.39,6.72-6.6.94-.93.91-2.45-.05-3.37-.94-.91-2.51-.9-3.45,0-1.1,1.07-2.21,2.15-3.3,3.23-4.22,4.14-8.44,8.29-12.67,12.42-.57.55-1,1.14-1.23,1.89-.12.39-.25.77-.43,1.14-.23.47-.13.87.14,1.3.4.65.79,1.31,1.11,2,1.06,2.29,1.29,4.69.8,7.15-.43,2.19-1.41,4.11-2.95,5.76-1.16,1.25-2.58,2.1-4.21,2.6-1.23.38-2.49.48-3.77.31-2.17-.28-4.08-1.12-5.54-2.76-.51-.58-.91-1.25-1.37-1.88ZM22.37,32.15c0,.57-.01,1.13,0,1.7.04,1.1.4,2.08,1.19,2.88,2.1,2.14,5.74,2.45,8.16.56,2.75-2.14,3.68-5.04,3.25-8.39-.18-1.41-.75-2.68-1.58-3.85-.77-1.09-.95-2.27-.49-3.53.36-1,.73-1.99,1.1-2.99.69-1.83,1.4-3.65,2.09-5.48.4-1.05-.07-2.18-1.09-2.66-.99-.47-2.21-.12-2.78.82-.87,1.43-1.72,2.86-2.58,4.3-1.48,2.46-2.96,4.9-4.43,7.37-.63,1.07-1.29,2.13-1.81,3.25-.9,1.9-1.1,3.95-1.03,6.02ZM51.98,22.62c1.49-1.46,3.01-2.96,4.53-4.45,2.96-2.91,5.92-5.81,8.89-8.71.76-.74,1.02-1.85.6-2.73-.75-1.59-2.8-1.94-4.07-.7-3.74,3.67-7.48,7.34-11.22,11.01-.82.81-1.65,1.61-2.44,2.37,1.24,1.08,2.46,2.13,3.71,3.21ZM56.32,29.23s.11-.09.18-.16c2.78-2.73,5.56-5.46,8.34-8.18,1.44-1.41,2.88-2.82,4.32-4.24.98-.96.98-2.49-.01-3.45-.93-.91-2.49-.9-3.44.03-3.34,3.26-6.67,6.53-10,9.8-.65.63-1.31,1.25-1.9,1.81.87,1.52,1.68,2.94,2.51,4.39Z"/>
      <path class="cls-1" d="M53.27,62.14c-1.04-.3-2.05-.59-3.11-.89-.42.6-.87,1.24-1.32,1.87-1.97,2.82-3.95,5.63-5.92,8.45-.45.65-1.37.8-2.04.35-.66-.44-.83-1.35-.38-1.99,2.28-3.25,4.56-6.51,6.84-9.76.04-.05.07-.11.11-.18-.67-.39-1.34-.76-1.99-1.15-.56-.34-.8-.91-.68-1.52.11-.58.57-1.02,1.19-1.14.45-.08.83.07,1.2.29,1.78,1.08,3.64,1.99,5.65,2.56.91.26,1.83.48,2.78.36,1.43-.19,2.69-.84,3.69-1.82,1.03-1.01,1.95-2.13,2.89-3.22,2.58-2.99,5.14-5.99,7.72-8.98,1.29-1.5,2.6-2.99,3.89-4.5,2.48-2.89,4.95-5.78,7.42-8.67.71-.83.77-1.98.14-2.86-.62-.86-1.78-1.19-2.8-.77-.47.19-.93.35-1.43.15-1-.41-1.35-1.82-.65-2.68,1.02-1.26,2.05-2.5,3.08-3.75.76-.93.77-2.15,0-3.02-.76-.85-1.99-1.04-3.01-.43-.23.14-.44.34-.62.54-.36.41-1.2.59-1.72.35-.6-.28-.96-.93-.8-1.57.06-.26.19-.52.35-.74.49-.64,1.02-1.24,1.52-1.87.6-.75.7-1.59.27-2.44-.42-.83-1.12-1.28-2.09-1.3-.91-.01-1.6-.68-1.56-1.49.05-.86.76-1.45,1.68-1.4,2.35.14,4.14,1.44,4.89,3.58.35,1.01.35,2.04.06,3.07.47.15.95.27,1.39.46,3.24,1.4,4.18,5.41,1.91,8.08-.41.48-.8.97-1.17,1.42.56.27,1.14.48,1.66.79,2.65,1.59,3.22,5.33,1.21,7.66-3.18,3.68-6.34,7.39-9.52,11.08-3.33,3.88-6.67,7.75-10,11.63-.64.74-1.26,1.5-1.91,2.23-1.03,1.16-2.3,2.01-3.72,2.65-.91.41-1.72.98-2.34,1.75-.37.45-.62,1-.9,1.52-1.83,3.45-3.66,6.9-5.49,10.35-.55,1.03-1.06,2.09-1.65,3.1-.69,1.18-1.81,1.74-3.16,1.9-1.96.23-3.79-.28-5.57-.97-2.95-1.14-5.6-2.79-8.15-4.6-.71-.5-.84-1.39-.34-2.05.48-.64,1.41-.75,2.11-.25,2.07,1.45,4.21,2.79,6.54,3.82,1.39.61,2.8,1.16,4.35,1.23.28.01.56-.02.84-.06.44-.07.75-.3.97-.71,2.13-4.05,4.28-8.09,6.43-12.14.41-.78.83-1.55,1.24-2.32Z"/>
    </g>
  </g>
</svg>