<?xml version="1.0" encoding="UTF-8"?>
<svg id="Layer_2" data-name="Layer 2" xmlns="http://www.w3.org/2000/svg" viewBox="0 0 9.14 9.14">
  <defs>
    <style>
      .cls-1 {
        fill: #e74d0f;
        stroke-width: 0px;
      }
    </style>
  </defs>
  <g id="Layer_1-2" data-name="Layer 1">
    <path class="cls-1" d="M9.14,8.44c0,.19-.07.36-.2.5-.14.14-.3.21-.5.21s-.36-.07-.49-.21l-1.88-1.88c-.66.45-1.39.68-2.19.68-.52,0-1.02-.1-1.5-.31-.48-.2-.89-.48-1.24-.82-.35-.35-.62-.76-.83-1.24-.2-.48-.3-.98-.3-1.5s.1-1.02.3-1.5c.2-.48.48-.89.83-1.24.35-.35.76-.62,1.24-.82.48-.2.98-.31,1.5-.31s1.02.1,1.5.31c.48.2.89.48,1.24.82.34.35.62.76.82,1.24.2.48.3.98.3,1.5,0,.81-.23,1.54-.68,2.19l1.88,1.88c.14.14.2.3.2.49ZM5.6,5.6c.48-.48.72-1.06.72-1.74s-.24-1.26-.72-1.74c-.48-.48-1.06-.72-1.74-.72s-1.26.24-1.74.72c-.48.48-.72,1.06-.72,1.74s.24,1.26.72,1.74c.48.48,1.06.72,1.74.72s1.26-.24,1.74-.72Z"/>
  </g>
</svg>