<?xml version="1.0" encoding="UTF-8"?>
<svg id="Layer_2" data-name="Layer 2" xmlns="http://www.w3.org/2000/svg" viewBox="0 0 58.15 72.16">
  <defs>
    <style>
      .cls-1 {
        fill: #fff;
        stroke-width: 0px;
      }
    </style>
  </defs>
  <g id="Layer_1-2" data-name="Layer 1">
    <g>
      <path class="cls-1" d="M51.03,56c0,1.41-.01,2.75.02,4.08,0,.11.33.26.54.3,2.02.38,3.58,1.31,4.65,2.8,1.56,2.17,1.23,5-.76,6.9-2.08,1.98-5.31,2.61-8.12,1.58-2.82-1.03-4.57-3.52-4.25-6.05.33-2.6,2.51-4.68,5.49-5.22.19-.03.38-.07.59-.12v-4.29c-.76,0-1.47,0-2.19,0-1.36,0-2.17-.69-2.18-1.84,0-2.03,0-4.06,0-6.09,0-.36-.15-.62-.41-.91-.65-.74-1.19-1.56-1.79-2.33-.11-.14-.31-.32-.47-.32-1.92-.02-3.85-.01-5.88-.01,0,.26,0,.5,0,.73-.04,1.72-1.52,2.96-3.57,2.97-2.39,0-4.78,0-7.17,0-2.18,0-3.66-1.24-3.67-3.07,0-.18,0-.36,0-.58-.17-.02-.32-.05-.46-.05-1.75,0-3.5,0-5.25,0-.37,0-.55.1-.68.39-.39.91-1.04,1.67-1.81,2.38-.19.17-.32.45-.32.68-.02,2-.01,3.99-.01,5.99,0,1.45-.73,2.07-2.43,2.07-.64,0-1.27,0-1.98,0,0,.8,0,1.55,0,2.3,0,.51.02,1.02,0,1.52-.02.35.1.51.54.59,3.47.61,5.79,3.16,5.61,6.12-.19,3.07-3.14,5.5-6.83,5.63-3.6.12-6.78-2.19-7.24-5.26-.45-2.98,1.96-5.85,5.5-6.47.53-.09.67-.26.66-.7-.04-1.21-.01-2.42-.01-3.72-.78,0-1.52,0-2.27,0-.88,0-1.56-.29-1.92-.97-.15-.29-.21-.63-.21-.95-.02-2.03,0-4.06-.02-6.08,0-.26-.17-.57-.38-.76C.88,45.93.05,44.41.02,42.61c-.03-1.44-.03-2.88,0-4.32.02-1.17.68-2.04,1.94-2.53.46-.17.56-.38.56-.77-.01-11.17,0-22.35,0-33.52,0-1.39.1-1.48,1.74-1.48,2.72,0,5.44,0,8.16.02.34,0,.74.11,1.02.27,5.03,2.85,10.05,5.71,15.06,8.58.46.26.76.25,1.21-.02,5.01-2.88,10.03-5.73,15.06-8.58.3-.17.72-.26,1.08-.26,2.86-.02,5.71-.01,8.57,0,.97,0,1.24.23,1.24,1.06,0,11.25,0,22.51,0,33.76,0,.49.08.77.69,1,1.02.37,1.72,1.11,1.76,2.05.07,1.91.07,3.83-.09,5.73-.12,1.43-1.03,2.61-2.2,3.65-.2.18-.35.47-.35.71-.03,2-.02,3.99-.02,5.99,0,1.41-.75,2.05-2.41,2.05-.64,0-1.28,0-2.01,0ZM13.58,7.57c0,.29,0,.46,0,.63,0,8.9,0,17.8,0,26.69,0,.11-.04.24.01.34.08.16.19.32.34.43.48.35.98.68,1.49.99.21.13.47.29.71.3,1.73.03,3.46.01,5.19.01.17,0,.34-.02.57-.03,0-.24,0-.44,0-.65,0-1.34.77-2.34,2.24-2.82.36-.12.4-.29.4-.55,0-1.65-.01-3.3,0-4.96,0-.32-.13-.45-.47-.56-1.46-.49-2.39-1.63-2.39-2.88,0-1.28.92-2.45,2.39-2.93.39-.13.48-.29.47-.61-.02-2.03-.02-4.06,0-6.08,0-.37-.15-.59-.5-.8-2.94-1.82-5.87-3.66-8.81-5.49-.51-.32-1.02-.63-1.64-1.02ZM36.3,36.97c2.05,0,3.99,0,5.93-.01.18,0,.38-.17.54-.29.43-.3.8-.68,1.29-.89.44-.19.55-.4.55-.78-.01-8.93,0-17.86,0-26.79,0-.17,0-.34,0-.57-.15.06-.22.08-.28.12-3.45,2.15-6.9,4.3-10.34,6.46-.17.11-.3.35-.3.52-.02,2.11,0,4.22-.02,6.33,0,.28.13.39.42.49,1.52.52,2.48,1.66,2.43,2.95-.06,1.37-.88,2.35-2.39,2.87-.38.13-.47.3-.46.62.02,1.64.02,3.27,0,4.91,0,.31.11.44.46.57,1.41.5,2.14,1.41,2.18,2.71,0,.24,0,.48,0,.78ZM53.82,35.45V1.55h-7.39v33.9h7.39ZM11.74,35.45V1.55h-7.38v33.9h7.38ZM44.6,2.19c-.31.17-.49.27-.66.37-4.67,2.66-9.33,5.32-14,7.97-.79.45-.93.45-1.72,0-4.63-2.64-9.27-5.28-13.9-7.92-.22-.12-.44-.24-.75-.4,0,1.07.02,2.03-.01,2.99-.01.38.16.59.5.8,3.89,2.42,7.77,4.85,11.67,7.26.42.26.59.56.59.99-.02,2.17,0,4.35,0,6.52,0,.17.02.35.03.52h5.55c0-.22,0-.4,0-.58,0-2.03.04-4.06-.02-6.08-.02-.76.29-1.22,1.01-1.66,3.79-2.32,7.53-4.68,11.29-7.03.17-.11.41-.28.42-.42.04-1.07.02-2.15.02-3.34ZM23.69,40.64c0,1.49,0,2.97,0,4.46,0,1.03.65,1.58,1.87,1.58,2.35,0,4.7,0,7.05,0,1.22,0,1.88-.55,1.88-1.57,0-2.94,0-5.88,0-8.83,0-.97-.64-1.51-1.81-1.51-2.39,0-4.78,0-7.17,0-1.2,0-1.82.53-1.83,1.55,0,1.44,0,2.88,0,4.31ZM8.06,36.97h0c-1.52,0-3.03-.01-4.55,0-1.03.01-1.69.54-1.7,1.35-.02,1.46-.05,2.91,0,4.37.11,2.99,3.45,5.36,6.98,4.99,3.15-.33,5.4-2.5,5.45-5.27.02-1.29.01-2.58,0-3.88,0-1.04-.62-1.55-1.88-1.56-1.44,0-2.88,0-4.31,0ZM50.16,36.97h0c-1.52,0-3.03,0-4.55,0-1,0-1.66.54-1.67,1.38-.02,1.44-.05,2.88.02,4.32.14,2.87,2.96,5.12,6.27,5.06,3.38-.07,6.13-2.43,6.15-5.3.01-1.29,0-2.58,0-3.88,0-1.05-.61-1.58-1.85-1.58-1.46,0-2.92,0-4.37,0ZM46.66,48.58c-.02.21-.04.34-.04.46,0,1.63.01,3.27-.01,4.9,0,.43.15.57.66.56,1.9-.02,3.81-.03,5.71,0,.57,0,.68-.17.68-.6-.02-1.63,0-3.27-.01-4.9,0-.12-.02-.25-.04-.42-2.31.87-4.59.87-6.95,0ZM50.13,70.64c2.93,0,5.31-2,5.31-4.46,0-2.42-2.4-4.41-5.31-4.4-2.89,0-5.24,1.98-5.24,4.4,0,2.47,2.35,4.46,5.24,4.46ZM11.58,48.55c-2.39.91-4.69.88-7.04.02,0,1.92,0,3.75,0,5.58,0,.29.21.34.49.34,2,0,4,0,6,0,.39,0,.56-.11.55-.46-.02-.82,0-1.63,0-2.45,0-.98,0-1.95,0-3.04ZM8.07,70.64c2.89,0,5.23-2.01,5.22-4.47,0-2.43-2.37-4.4-5.25-4.39-2.93,0-5.29,1.97-5.29,4.41,0,2.45,2.39,4.46,5.32,4.45ZM29.06,26.12c1.17,0,2.33.01,3.5,0,1.29-.02,2.16-.7,2.15-1.65,0-.94-.91-1.62-2.18-1.63-2.29,0-4.59,0-6.88,0-1.27,0-2.17.69-2.18,1.63-.01.94.87,1.63,2.15,1.65,1.15.02,2.29,0,3.44,0ZM31.85,27.66h-5.51v5.56h5.51v-5.56ZM21.86,38.52h-5.79v4.42h5.79v-4.42ZM42.13,38.51h-5.79v4.44h5.79v-4.44Z"/>
      <path class="cls-1" d="M51.03,16.4c0,1.42,0,2.84,0,4.27,0,.6-.33.95-.89.95-.56,0-.89-.34-.89-.94,0-2.86,0-5.72,0-8.58,0-.62.31-.94.88-.95.57,0,.9.33.9.94,0,1.44,0,2.88,0,4.31Z"/>
      <path class="cls-1" d="M49.25,25.07c0-.44-.02-.88,0-1.32.02-.46.37-.76.86-.77.51,0,.9.31.91.78.02.9.02,1.8,0,2.7,0,.49-.38.79-.9.79-.51,0-.86-.31-.87-.8-.01-.46,0-.92,0-1.37,0,0,0,0,0,0Z"/>
      <path class="cls-1" d="M8.94,16.35c0,1.44,0,2.88,0,4.32,0,.6-.34.95-.89.95-.55,0-.9-.36-.9-.95,0-2.86,0-5.72,0-8.58,0-.6.33-.94.89-.95.56,0,.89.34.89.94,0,1.42,0,2.84,0,4.27Z"/>
      <path class="cls-1" d="M8.94,25.14c0,.44.01.88,0,1.32-.02.49-.38.79-.9.78-.49,0-.86-.3-.87-.76-.02-.92-.02-1.83,0-2.75,0-.45.4-.76.87-.77.51,0,.87.31.9.79.02.23,0,.46,0,.69,0,.23,0,.46,0,.69,0,0,0,0,0,0Z"/>
    </g>
  </g>
</svg>