<?xml version="1.0" encoding="UTF-8"?>
<svg id="Layer_2" data-name="Layer 2" xmlns="http://www.w3.org/2000/svg" viewBox="0 0 9.53 9.54">
  <defs>
    <style>
      .cls-1 {
        fill: #1d1d1b;
        stroke-width: 0px;
      }
    </style>
  </defs>
  <g id="Layer_1-2" data-name="Layer 1">
    <path class="cls-1" d="M9.53,4.77c0,.95,0,1.61-.03,1.97-.04.86-.3,1.53-.77,2-.47.47-1.14.73-2,.77-.36.02-1.02.03-1.97.03s-1.6-.01-1.97-.03c-.86-.04-1.53-.3-2-.77-.47-.47-.73-1.14-.77-2-.02-.36-.03-1.02-.03-1.97s0-1.6.03-1.97c.04-.86.3-1.53.77-2C1.27.33,1.94.07,2.8.03c.36-.02,1.02-.03,1.97-.03s1.61.01,1.97.03c.86.04,1.53.3,2,.77.47.47.73,1.14.77,2,.02.36.03,1.02.03,1.97ZM5.24.85c-.29,0-.45,0-.48,0-.03,0-.19,0-.47,0h-.65c-.15,0-.35.01-.6.02-.25,0-.46.03-.64.06-.18.03-.32.07-.44.12-.21.08-.39.2-.55.36-.16.16-.28.34-.36.55-.05.12-.08.27-.12.45-.03.18-.05.39-.06.64-.01.25-.02.45-.02.6,0,.15,0,.37,0,.66,0,.28,0,.44,0,.47,0,.03,0,.19,0,.47,0,.29,0,.51,0,.66,0,.15,0,.35.02.6,0,.25.03.46.06.64.03.18.07.32.12.44.08.21.2.39.36.55.16.16.34.28.55.36.12.05.27.08.44.12.17.03.39.05.64.06.25.01.45.02.6.02h.65c.29,0,.45,0,.47,0,.03,0,.19,0,.48,0h.65c.15,0,.35,0,.6-.02.25-.01.47-.03.64-.06.18-.03.33-.07.45-.12.21-.08.39-.2.54-.36.16-.16.28-.34.36-.55.04-.12.08-.27.12-.44.03-.18.05-.39.06-.64,0-.25.02-.45.02-.6,0-.15,0-.37,0-.66,0-.29,0-.44,0-.47s0-.19,0-.47c0-.29,0-.51,0-.66,0-.15,0-.35-.02-.6-.01-.25-.03-.46-.06-.64-.03-.18-.07-.33-.12-.45-.08-.2-.2-.39-.36-.55-.16-.16-.34-.28-.54-.36-.12-.05-.27-.08-.45-.12-.17-.03-.39-.05-.64-.06-.25-.01-.45-.02-.6-.02h-.65ZM6.5,3.04c.48.48.72,1.05.72,1.73s-.24,1.26-.72,1.73c-.47.48-1.05.72-1.73.72s-1.25-.24-1.73-.72c-.47-.48-.71-1.05-.71-1.73s.24-1.26.71-1.73c.48-.48,1.05-.71,1.73-.71s1.26.24,1.73.71ZM5.89,5.89c.31-.31.47-.68.47-1.12s-.15-.81-.47-1.12c-.31-.31-.68-.47-1.12-.47s-.81.15-1.12.47c-.31.31-.46.68-.46,1.12s.16.81.46,1.12c.31.31.69.47,1.12.47s.82-.16,1.12-.47ZM7.71,1.82c.11.12.17.25.17.41s-.06.29-.17.4c-.11.11-.25.17-.4.17s-.29-.06-.4-.17c-.11-.11-.17-.24-.17-.4s.06-.29.17-.41c.11-.11.25-.16.4-.16s.29.05.4.16Z"/>
  </g>
</svg>