<?xml version="1.0" encoding="UTF-8"?>
<svg id="Layer_2" data-name="Layer 2" xmlns="http://www.w3.org/2000/svg" viewBox="0 0 42.77 86.82">
  <defs>
    <style>
      .cls-1 {
        fill: #fff;
        stroke-width: 0px;
      }
    </style>
  </defs>
  <g id="Layer_1-2" data-name="Layer 1">
    <g>
      <path class="cls-1" d="M15.92,0h10.96c0,.77.04,1.52-.01,2.26-.03.49.15.73.68.92,3.28,1.19,6.55,2.41,9.81,3.64.28.1.57.34.69.58,2.08,4.45,3.64,9.04,4.42,13.81.41,2.52.37,5.05.13,7.59-.42,4.58-.83,9.16-1.24,13.74-.04.47-.11.94-.17,1.45h-6.34v42.78c-.26.02-.43.04-.61.04-3.22,0-6.44,0-9.65,0-.46,0-.69-.06-.73-.53-.33-4.64-.68-9.28-1.05-13.91-.26-3.28-.57-6.55-.85-9.82-.16-1.85-.29-3.71-.44-5.56,0-.1-.03-.19-.05-.29-.06,0-.12,0-.17,0-.79,10.02-1.57,20.03-2.36,30.08H7.99v-42.76H1.65c-.26-2.57-.52-5.07-.76-7.58-.29-3.06-.57-6.11-.81-9.17-.33-4.08.41-8.07,1.66-11.97.85-2.63,1.94-5.19,2.96-7.77.11-.29.46-.59.79-.72,3.26-1.24,6.53-2.45,9.8-3.65.47-.17.67-.37.64-.83-.05-.75-.01-1.5-.01-2.33ZM33.36,60.71v-16.67c-.54-.03-1.03-.05-1.52-.07,0-.4-.07-.75.02-1.06.11-.41-.08-.6-.44-.8-1.3-.73-2.58-1.49-3.87-2.24-.4-.23-.68-.53-.37-.94.32-.42.74-.35,1.18-.09,1.02.61,2.05,1.19,3.07,1.78.17.1.36.18.61.3.34-3.6.69-7.09,1-10.59.13-1.5.26-3,.24-4.5-.02-1.28-.26-2.56-.41-3.85-.16-1.4-.33-2.79-.5-4.24-.29,0-.54,0-.78,0-1.23,0-2.46.01-3.7.02-.48,0-.82-.19-.82-.62,0-.43.36-.62.83-.63.78,0,1.55,0,2.33,0,.65,0,1.3,0,2,0-.14-1.16-.26-2.22-.38-3.29-.05-.42.09-.79.63-.83.48-.04.75.23.79.66,0,.12.04.24.05.35.38,3.31.75,6.61,1.13,9.92.09.8.2,1.59.31,2.43,2.13-.28,4.18-.53,6.22-.83.15-.02.37-.33.36-.49-.08-1.05-.16-2.1-.33-3.14-.71-4.48-2.19-8.78-4.09-12.97-.11-.24-.42-.47-.7-.57-2.86-1.09-5.73-2.15-8.6-3.22-.22-.08-.45-.14-.69-.22q-.08.86-1.01,1.13c-1.06.31-2.11.63-3.19.91-.5.13-.65.33-.65.79.01,12.86,0,25.72,0,38.58,0,.24,0,.48.01.71.26,3.35.52,6.71.78,10.06.11,1.4.21,2.79.31,4.21h10.16ZM19.58,60.71c.18-2.32.37-4.55.51-6.78.22-3.34.54-6.68.57-10.03.07-10.15.03-20.29.03-30.44,0-.52,0-1.04,0-1.67-.21.15-.29.21-.37.27-.36.25-.73.26-1.03-.04-.31-.3-.23-.62.09-.9.29-.25.6-.49.86-.77.18-.19.42-.41.43-.63.04-1.05.02-2.1.02-3.18-1.22-.35-2.43-.71-3.64-1.05-.64-.18-1.41-.25-1.1-1.16-.19.03-.28.03-.36.06-3.06,1.14-6.12,2.27-9.17,3.43-.25.09-.48.36-.58.59-1.81,4.01-3.22,8.12-3.96,12.39-.24,1.34-.33,2.7-.49,4.08,2.28.3,4.41.57,6.58.86.05-.17.11-.29.13-.42.29-2.38.57-4.77.85-7.15.2-1.71.42-3.43.62-5.14.05-.42.31-.69.8-.63.49.06.66.39.62.79-.1.91-.22,1.81-.32,2.72-.02.19,0,.37,0,.6,1.45,0,2.83,0,4.22,0,.5,0,.87.18.86.65-.01.45-.39.59-.86.57-.18,0-.37,0-.55,0-1.27,0-2.55,0-3.86,0-.05.28-.09.49-.12.7-.2,1.66-.4,3.31-.58,4.97-.13,1.2-.37,2.41-.28,3.61.26,3.69.65,7.37.99,11.06.09.93.19,1.86.29,2.87.28-.15.47-.25.65-.36,1.07-.61,2.13-1.23,3.2-1.84.39-.22.82-.18.99.17.1.22-.07.56-.19.83-.06.12-.28.19-.43.28-1.02.59-2.02,1.23-3.09,1.76-.8.39-1.19.85-.91,1.65.05.16,0,.34,0,.57h-1.55v16.69h10.15ZM33.38,66.24v-4.24h-10.06c.15,1.43.3,2.82.45,4.24h9.61ZM9.39,66.23h9.65c.14-1.44.28-2.82.43-4.27-.78,0-1.46,0-2.14,0-2.44,0-4.88,0-7.32.02-.28,0-.63-.08-.63.34,0,1.28,0,2.57,0,3.91ZM9.44,67.52v18.06h1.27v-16.91h8.15c.02-.43.04-.77.06-1.15h-9.49ZM25.2,68.68c.39,0,.66,0,.93,0,2.08,0,4.15,0,6.23,0q1.11,0,1.04-.98c0-.05-.05-.11-.07-.15h-9.46c.47,6.04.93,12.03,1.39,18.02h1.24c-.43-5.62-.86-11.2-1.29-16.89ZM34.79,27.01c-.14,1.57-.27,3.1-.41,4.68,2.15-.23,4.18-.44,6.21-.69.17-.02.41-.28.43-.45.12-1.1.18-2.21.26-3.31.02-.34,0-.68,0-1.06-2.19.28-4.3.55-6.49.83ZM1.44,26.15c.09,1.22.16,2.38.26,3.54.09,1.1.09,1.12,1.33,1.28,1.77.23,3.55.42,5.44.64-.15-1.58-.3-3.09-.45-4.6-2.22-.29-4.35-.57-6.58-.86ZM25.45,1.22h-8.11c0,.88.02,1.75,0,2.61,0,.33.11.49.49.59,1.07.28,2.12.61,3.18.89.22.06.5.08.72.02,1.11-.3,2.21-.62,3.3-.96.17-.05.4-.24.41-.37.04-.9.02-1.81.02-2.78ZM33.32,42.76c.25,0,.41,0,.56.02.71.1.99-.1,1.04-.77.17-2.33.42-4.65.63-6.97.08-.91.06-.92,1.14-1,.09,0,.18,0,.27,0,.54,0,1.09.03,1.63-.04.66-.09,1.31-.26,2.13-.43.03-.29.09-.79.15-1.35-2.26.25-4.42.49-6.63.73-.31,3.28-.62,6.51-.93,9.81ZM8.55,32.85c-2.23-.25-4.4-.5-6.65-.76.35,3.61.7,7.12,1.05,10.65h1.28c-.3-3.13-.59-6.21-.9-9.4,1.8.2,3.51.39,5.31.59-.03-.38-.06-.69-.09-1.07ZM8.77,42.64s0-.03,0-.05h-3.91s0,.03,0,.05h3.91ZM39.44,42.64s0-.03,0-.05h-3.77s0,.03,0,.05h3.77Z"/>
      <path class="cls-1" d="M8.77,42.64h-3.91s0-.03,0-.05h3.91s0,.03,0,.05Z"/>
      <path class="cls-1" d="M39.44,42.64h-3.77s0-.03,0-.05h3.77s0,.03,0,.05Z"/>
    </g>
  </g>
</svg>