<?xml version="1.0" encoding="UTF-8"?>
<svg id="Layer_2" data-name="Layer 2" xmlns="http://www.w3.org/2000/svg" viewBox="0 0 76.66 27.15">
  <defs>
    <style>
      .cls-1 {
        letter-spacing: -.01em;
      }

      .cls-2 {
        letter-spacing: -.02em;
      }

      .cls-3 {
        letter-spacing: 0em;
      }

      .cls-4 {
        letter-spacing: -.02em;
      }

      .cls-5 {
        letter-spacing: -.03em;
      }

      .cls-6, .cls-7 {
        fill-rule: evenodd;
      }

      .cls-6, .cls-7, .cls-8 {
        stroke-width: 0px;
      }

      .cls-6, .cls-8, .cls-9 {
        fill: #1d1d1b;
      }

      .cls-7 {
        fill: #e74d0f;
      }

      .cls-10 {
        letter-spacing: -.02em;
      }

      .cls-11 {
        letter-spacing: 0em;
      }

      .cls-9 {
        font-family: Montserrat-SemiBold, Montserrat;
        font-size: 5.68px;
        font-weight: 600;
      }
    </style>
  </defs>
  <g id="Layer_1-2" data-name="Layer 1">
    <g>
      <text class="cls-9" transform="translate(.03 25.64)"><tspan class="cls-10" x="0" y="0">A</tspan><tspan class="cls-11" x="4.17" y="0">d</tspan><tspan class="cls-5" x="8.01" y="0">v</tspan><tspan class="cls-1" x="11.14" y="0">a</tspan><tspan class="cls-3" x="14.53" y="0">n</tspan><tspan class="cls-4" x="18.37" y="0">c</tspan><tspan class="cls-11" x="21.57" y="0">ed Sa</tspan><tspan class="cls-4" x="37.31" y="0">f</tspan><tspan class="cls-11" x="39.3" y="0">e</tspan><tspan class="cls-2" x="42.78" y="0">t</tspan><tspan class="cls-11" x="45.08" y="0">y Solutions</tspan></text>
      <g>
        <path class="cls-6" d="M28.84,11.3c.06.36.09.74.09,1.12,0,4.06-3.52,7.36-7.86,7.36s-7.86-3.3-7.86-7.36c0-.32.02-.64.07-.95,1.3-.05,2.43.36,3.13.7,0,.08,0,.17,0,.26,0,2.41,2.09,4.37,4.67,4.37s4.67-1.96,4.67-4.37c0-.08,0-.16,0-.24,1.09-.62,2.34-.81,3.11-.88M21.07,5.05c3.44,0,6.37,2.07,7.43,4.96-1.3-.35-2.57-.35-3.68-.2-.85-1.07-2.21-1.76-3.75-1.76s-2.92.71-3.77,1.8c-1.33-.21-2.71-.06-3.63.1,1.08-2.85,3.99-4.89,7.4-4.89Z"/>
        <polygon class="cls-7" points="7.74 8.35 .6 8.35 .6 5.34 12.49 5.34 12.49 7.67 5.19 16.49 12.72 16.49 12.72 19.49 .44 19.49 .44 17.17 7.74 8.35"/>
        <path class="cls-7" d="M38.01,16.49c.69,0,1.36-.14,1.96-.49.59-.33,1.05-.82,1.38-1.41.38-.67.52-1.42.52-2.18s-.14-1.52-.52-2.19c-.34-.59-.79-1.06-1.38-1.4-.61-.34-1.27-.49-1.96-.49s-1.36.14-1.96.49c-.59.33-1.05.81-1.38,1.4-.38.67-.52,1.43-.52,2.19s.15,1.51.52,2.18c.34.59.79,1.07,1.38,1.41.61.34,1.27.49,1.96.49M41.83,6.71V0h3.62v19.49h-3.49v-1.44c-.32.32-.69.6-1.09.82-1.15.65-2.43.86-3.75.78-.97-.06-1.93-.28-2.8-.72-1.25-.62-2.23-1.53-2.91-2.72-.67-1.17-.93-2.47-.93-3.81s.26-2.64.93-3.81c.74-1.29,1.83-2.25,3.25-2.86.59-.25,1.22-.41,1.85-.49,1.52-.2,3-.02,4.31.71.37.21.71.45,1.01.74Z"/>
        <path class="cls-7" d="M56.03,14.95v-1.33h-3.1c-.58,0-1.61.05-2.06.47-.3.28-.47.62-.49,1.02-.03.46.15.94.5,1.24.51.44,1.25.56,1.9.56.71,0,1.39-.15,2.01-.51.59-.34.99-.83,1.24-1.45M56.21,18.23c-.28.3-.61.54-.98.75-.94.53-2.06.7-3.12.7-.95,0-1.91-.15-2.79-.55-.97-.44-1.77-1.14-2.23-2.18-.19-.42-.29-.89-.31-1.35-.04-.87.13-1.7.58-2.44.44-.73,1.14-1.22,1.91-1.55,1.04-.45,2.3-.56,3.42-.56h3.33c0-.77-.2-1.49-.78-2.03-.66-.61-1.68-.74-2.53-.73-.5,0-1.01.07-1.5.18-.87.2-1.72.55-2.42,1.13l-.2.17-1.47-2.73.11-.08c.57-.43,1.18-.8,1.85-1.05,1.33-.49,2.72-.72,4.12-.72,1.69,0,3.45.34,4.75,1.48,1.32,1.15,1.71,2.88,1.71,4.57v8.26h-3.46v-1.26Z"/>
        <polygon class="cls-7" points="65.12 11.22 71.47 5.34 75.93 5.34 69.98 11.32 76.4 19.49 71.94 19.49 67.27 13.72 65.12 15.75 65.12 19.49 61.48 19.49 61.48 0 65.12 0 65.12 11.22"/>
        <path class="cls-7" d="M28.88,10.82c-3.21.05-6.66,1.48-7.81,4.71h-.02c-1.14-3.23-4.6-4.66-7.81-4.71,2.74-.97,6.84-.29,7.82,1.6,1.02-2.02,5.08-2.57,7.82-1.6"/>
        <path class="cls-8" d="M28.81,11.86c-.01-.16-.03-.31-.05-.46-.37.03-.83.1-1.33.22-.52.13-1.08.32-1.6.61v.06s0,.09,0,.12c0,1.23-.53,2.35-1.4,3.16-.86.81-2.05,1.31-3.36,1.31s-2.5-.5-3.36-1.31c-.86-.81-1.4-1.93-1.4-3.16,0-.04,0-.08,0-.13v-.07c-.34-.16-.77-.33-1.27-.46-.5-.13-1.07-.22-1.68-.2-.02.13-.03.26-.04.39-.01.15-.02.31-.02.47,0,2.01.87,3.82,2.27,5.13,1.4,1.32,3.35,2.13,5.49,2.13s4.09-.81,5.49-2.13c1.4-1.31,2.27-3.13,2.27-5.13,0-.19,0-.37-.02-.55M28.93,11.28c.03.19.05.38.07.56.02.19.02.38.02.57,0,2.06-.89,3.92-2.33,5.27-1.44,1.35-3.43,2.18-5.62,2.18s-4.18-.83-5.62-2.18c-1.44-1.35-2.33-3.21-2.33-5.27,0-.16,0-.32.02-.48.01-.16.03-.32.05-.48v-.08s.09,0,.09,0c.66-.03,1.28.06,1.82.2.54.14,1.01.33,1.36.5l.06.03v.06s0,.09-.01.12c0,.04,0,.08,0,.13,0,1.18.51,2.25,1.34,3.02.83.77,1.97,1.25,3.24,1.25s2.41-.48,3.24-1.25c.83-.77,1.34-1.84,1.34-3.02,0-.05,0-.08,0-.12,0-.04,0-.07,0-.12v-.06s.05-.03.05-.03c.55-.31,1.15-.52,1.7-.66.55-.14,1.06-.2,1.45-.23h.09s.01.08.01.08ZM25.57,6.49c-1.27-.85-2.82-1.35-4.5-1.35s-3.21.49-4.47,1.32c-1.25.83-2.23,1.99-2.78,3.35.5-.08,1.11-.15,1.77-.17.54-.01,1.11,0,1.67.09.44-.55,1-1,1.66-1.31.65-.31,1.38-.48,2.15-.48s1.49.17,2.13.47c.65.31,1.22.75,1.65,1.29.59-.07,1.21-.11,1.87-.07.53.03,1.07.1,1.62.24-.55-1.37-1.52-2.54-2.77-3.38ZM21.07,4.96c1.72,0,3.31.51,4.61,1.38,1.34.89,2.37,2.16,2.91,3.64l.06.17-.18-.05c-.6-.16-1.19-.25-1.76-.28-.66-.04-1.3,0-1.89.08h-.05s-.03-.04-.03-.04c-.42-.53-.98-.97-1.62-1.27-.62-.29-1.31-.45-2.05-.45s-1.45.17-2.07.46c-.65.31-1.2.75-1.63,1.3l-.03.04h-.06c-.57-.1-1.14-.12-1.69-.11-.72.02-1.39.11-1.91.2l-.17.03.06-.16c.56-1.46,1.59-2.71,2.92-3.59,1.29-.85,2.87-1.36,4.57-1.36Z"/>
      </g>
    </g>
  </g>
</svg>